<?xml version="1.0" encoding="utf-8"?>
<!DOCTYPE svg PUBLIC "-//W3C//DTD SVG 20010904//EN" "http://www.w3.org/TR/2001/REC-SVG-20010904/DTD/svg10.dtd">
<svg version="1.0" xmlns="http://www.w3.org/2000/svg" width="11000px" height="2480px" viewBox="0 0 11000 2480" preserveAspectRatio="xMidYMid meet">
   <defs>
      <linearGradient id="lg0" gradientUnits="userSpaceOnUse" x1="6.1728396%" y1="22.31579%" x2="6.1728396%" y2="66.31579%">
         <stop offset="0%" style="stop-color:rgb(159,193,117);"></stop>
         <stop offset="15%" style="stop-color:rgb(156,194,126);"></stop>
         <stop offset="16%" style="stop-color:rgb(157,193,117);"></stop>
         <stop offset="43%" style="stop-color:rgb(93,178,127);"></stop>
         <stop offset="44%" style="stop-color:rgb(102,180,126);"></stop>
         <stop offset="57%" style="stop-color:rgb(71,172,130);"></stop>
         <stop offset="59%" style="stop-color:rgb(76,174,129);"></stop>
         <stop offset="100%" style="stop-color:rgb(14,159,140);"></stop>
      </linearGradient>
   </defs>
 <g fill="#9dc277">
  <path fill="url(#lg0)" d="M786.6 799.7 l-19.8 -20.4 21.9 -24 22.5 -24 -283.1 0 -282.6 0 0 -96.6 0 -96.6 438.7 0 438.7 0 0 96.6 0 96.6 -126.9 0 -126.9 0 -18.3 43.4 c-22.5 52.8 -32.9 57.5 -64.2 25.1z"/>
 </g>
 <g fill="#87be79">
  <path fill="url(#lg0)" d="M904.7 1044.6 c-15.7 -20.9 -14.6 -25.1 6.3 -28.7 31.3 -6.3 47.5 9.9 34.5 34.5 -8.4 15.1 -27.7 12.5 -40.7 -5.7z"/>
  <path fill="url(#lg0)" d="M740.1 877.5 c-18.8 -19.8 -28.7 -34 -26.6 -38.1 2.1 -3.1 15.7 -18.3 29.2 -32.9 14.1 -14.6 28.2 -30.8 31.9 -35.5 5.7 -7.8 8.4 -6.8 27.2 12.5 11 11.5 23.5 20.9 27.2 20.9 8.9 0 9.9 -3.1 -13.6 52.8 -26.1 62.7 -32.4 64.8 -75.2 20.4z"/>
 </g>
 <g fill="#75ba7d">
  <path fill="url(#lg0)" d="M861.3 1128.2 c-16.2 -9.4 -88.3 -83.6 -88.3 -90.9 0 -10.4 8.4 -12.5 77.3 -16.7 l62.7 -3.7 8.9 14.1 c5.2 7.3 12.5 13.6 16.2 13.6 12.5 0 8.4 6.3 -30.8 48.1 -29.8 31.9 -39.2 39.2 -46 35.5z"/>
  <path fill="url(#lg0)" d="M687.4 957.9 l-41.3 -43.4 14.6 -17.2 c7.8 -9.4 25.1 -28.7 37.6 -42.3 26.6 -28.2 24 -28.7 64.8 13.6 13.1 13.6 26.6 24.5 30.3 24.5 3.7 0 5.7 3.1 4.2 6.8 -1.6 3.1 -9.9 23 -18.8 43.9 -30.8 74.7 -33.4 75.2 -91.4 14.1z"/>
 </g>
 <g fill="#5cb27f">
  <path fill="url(#lg0)" d="M741.2 1252 c-4.2 -4.2 -51.7 -53.8 -106.6 -110.7 -54.3 -56.4 -98.7 -103.4 -98.2 -105 0.5 -2.6 59.5 -68.4 103.4 -116 l20.9 -22.5 43.9 44.4 c24 24.5 45.4 44.9 48.1 44.9 6.3 0 5.7 2.6 -3.1 24 l-7.3 18.3 21.9 -1.6 c21.4 -1.6 23.5 0 65.3 41.3 23.5 23.5 46 43.9 49.6 44.9 3.7 1.6 -12 20.9 -36.6 46 -23.5 24 -53.8 56.4 -67.9 72.1 -23 24.5 -26.6 26.6 -33.4 19.8z"/>
 </g>
 <g fill="#42ac84">
  <path fill="url(#lg0)" d="M660.2 1331.9 c-13.6 -5.2 -80.4 -73.6 -80.4 -82 0 -3.7 5.7 -19.8 13.1 -36 7.3 -16.7 12 -30.8 11 -31.9 -1 -1.6 -22.5 -0.5 -47 2.1 l-44.9 4.7 -29.2 -29.8 -29.8 -30.3 18.8 -22.5 c10.4 -12.5 31.9 -36.6 47.5 -53.8 l28.7 -31.3 94.5 96.6 c52.2 53.3 100.8 103.4 108.1 111.8 l13.1 14.6 -46 46 c-38.7 38.7 -48.1 45.4 -57.5 41.8z"/>
 </g>
 <g fill="#2aa888">
  <path fill="url(#lg0)" d="M575.6 1427.5 c-3.7 -1.6 -17.2 -12.5 -30.3 -25.1 l-23 -22.5 12.5 -28.2 c6.8 -15.1 19.8 -46.5 29.2 -69.5 9.9 -23 18.8 -43.4 20.9 -45.4 1.6 -2.1 21.4 14.6 43.9 37.6 22.5 23 43.9 41.8 48.1 41.8 4.2 0 7.3 2.6 7.3 5.7 0 9.9 -101.3 108.6 -108.6 105.5z"/>
  <path fill="url(#lg0)" d="M424.6 1190.4 c-11.5 -12 -7.3 -23.5 17.8 -51.7 l24 -26.6 30.8 30.3 c43.4 42.8 42.3 45.4 -25.1 51.2 -30.8 2.6 -42.8 1.6 -47.5 -3.1z"/>
 </g>
 <g fill="#14a18b">
  <path fill="url(#lg0)" d="M245.5 1577.4 l0 -94 118 -1 118 -1.6 17.8 -44.4 c9.9 -24.5 21.4 -52.2 25.6 -61.6 l7.8 -16.7 26.1 26.1 c14.1 14.1 28.2 26.1 31.3 26.1 9.9 0 5.2 7.8 -23 39.2 l-28.2 31.3 292 1.6 292 1 0 94 0 94 -438.7 0 -438.7 0 0 -94z"/>
 </g>
 <g fill="#084c61">
  <path d="M1480.8 1681.9 c-60.1 -12.5 -123.3 -49.6 -158.8 -91.9 -8.9 -11 -24 -35.5 -33.4 -54.3 -14.6 -30.3 -16.7 -40.2 -18.3 -89.3 -2.6 -61.6 5.2 -97.7 29.2 -142.1 30.3 -55.9 106.6 -107.6 190.6 -129 41.3 -10.4 155.7 -20.9 230.3 -20.9 l40.7 0 -2.1 -45.4 c-3.1 -60.6 -18.8 -94 -54.8 -114.9 -21.9 -13.1 -30.3 -14.6 -69.5 -14.6 -71.6 0 -106 23 -120.7 79.9 l-5.7 21.9 -112.3 0 -111.8 0 3.1 -24.5 c15.7 -113.9 102.9 -198 241.8 -232.4 63.2 -15.7 173.4 -15.7 232.4 0.5 85.7 22.5 155.7 74.2 189.6 138.9 30.8 58.5 33.4 82.5 33.4 324.9 0 226.2 4.2 289.4 21.4 340 5.2 15.7 9.9 31.9 9.9 36 0 5.2 -21.9 6.8 -112.8 6.8 l-112.3 0 -7.3 -16.7 c-3.7 -9.4 -8.4 -26.1 -10.4 -37.1 l-4.2 -20.4 -18.8 17.8 c-25.6 24.5 -54.8 41.8 -91.9 56.4 -25.1 9.4 -43.9 12.5 -94 13.6 -34.5 1 -72.1 -0.5 -83.6 -3.1z m194.3 -178.1 c20.9 -7.8 39.2 -19.8 58 -38.7 l27.2 -27.2 0 -74.7 0 -74.2 -82.5 1.6 c-80.4 2.1 -83 2.6 -116 18.8 -47.5 23.5 -67.9 56.9 -67.9 110.2 0 39.2 17.8 66.9 54.8 86.2 24 13.1 88.8 11.5 126.4 -2.1z"/>
  <path d="M3326.1 1681.9 c-75.2 -13.6 -133.2 -44.4 -189.6 -101.3 -48.6 -48.6 -77.8 -101.3 -97.7 -175.5 -11 -40.2 -12 -55.4 -12 -159.3 0.5 -109.7 1 -117 14.6 -160.9 42.8 -138.9 129 -225.6 258 -260.6 58 -15.7 165.1 -15.1 222.5 0 94 25.6 168.2 85.7 207.4 167.1 17.8 37.1 31.3 93.5 31.3 129.5 l0 23 -103.9 0 -103.9 0 -3.7 -23.5 c-7.3 -51.7 -30.8 -87.2 -71.6 -110.2 -24.5 -13.1 -32.9 -15.1 -72.1 -15.1 -38.7 0 -47.5 2.1 -71 14.6 -33.4 18.8 -56.9 49.1 -71 92.5 -14.1 43.4 -19.3 188 -9.4 250.2 17.2 107.1 63.7 153 155.1 153.6 37.1 0.5 46.5 -1.6 72.6 -15.1 36 -18.3 56.4 -44.9 65.8 -84.1 l6.8 -27.7 102.9 0 103.4 0 0 21.4 c0 30.8 -14.1 81 -32.9 117 -21.4 40.7 -80.4 100.3 -123.8 123.8 -58.5 32.4 -97.2 41.8 -180.2 43.9 -40.2 0.5 -84.1 -0.5 -97.7 -3.1z"/>
  <path d="M4616.2 1681.9 c-128.5 -23 -234.5 -102.9 -288.3 -216.2 -31.3 -66.3 -37.1 -98.2 -37.1 -209.4 0.5 -86.7 2.1 -105 12 -143.6 32.9 -122.7 103.4 -213.6 202.1 -261.2 62.7 -29.8 103.4 -38.7 180.2 -38.1 110.7 0.5 191.2 30.3 255.9 95.6 78.3 78.3 107.6 161.4 113.3 322.8 l3.1 89.8 -270.6 0 -270.6 0 3.7 22.5 c8.4 51.7 49.1 110.2 95.1 137.4 31.3 18.3 90.9 29.8 132.7 25.6 64.8 -6.8 116 -29.8 157.7 -71.6 l21.4 -21.4 16.2 17.8 c82 89.8 92.5 103.4 87.2 113.9 -11.5 20.4 -75.7 73.6 -114.4 94 -65.8 34 -106 43.4 -196.9 45.4 -42.8 0.5 -89.3 -0.5 -102.9 -3.1z m214.2 -550 c-4.2 -61.1 -32.9 -106.6 -82 -128 -29.8 -13.1 -107.1 -11.5 -134.2 2.6 -45.4 24 -80.4 78.9 -93.5 146.8 l-3.7 16.7 158.3 0 157.7 0 -2.6 -38.1z"/>
  <path d="M10257.3 1681.9 c-88.3 -16.2 -153 -49.1 -213.1 -109.7 -24.5 -24.5 -53.3 -59.5 -64.2 -78.3 -43.4 -75.2 -62.2 -182.8 -51.7 -293.5 7.8 -77.3 18.3 -117 46 -175 65.8 -137.4 184.9 -211 344.2 -212.1 126.9 -1 218.9 38.7 286.8 123.8 61.6 76.8 86.7 167.1 86.7 309.2 l0 75.2 -269 0 c-147.8 0 -269 1.6 -269 4.2 0 2.1 3.1 15.7 7.3 29.8 26.1 98.2 97.7 151.5 201.6 150.9 75.7 -0.5 139.5 -26.1 181.8 -72.6 l19.3 -20.9 55.9 62.2 55.9 62.2 -17.8 20.9 c-43.4 50.7 -98.2 85.7 -169.8 109.2 -44.9 14.6 -56.9 16.2 -128 17.8 -42.8 0.5 -89.3 -0.5 -102.9 -3.1z m213.1 -545.3 c-5.7 -59 -25.1 -95.6 -62.7 -120.1 -41.3 -26.6 -111.8 -30.3 -158.3 -7.8 -42.3 20.4 -80.4 79.9 -88.8 138.4 l-3.1 23 158.3 0 158.3 0 -3.7 -33.4z"/>
  <path d="M2157.2 1248.3 l0 -423.1 103.9 0 103.4 0 3.7 24 c1.6 13.6 3.1 36 3.1 50.7 l0 25.6 34 -31.9 c73.1 -68.4 170.3 -95.6 273.7 -76.8 54.8 9.9 93 28.2 126.4 61.6 28.7 28.7 44.4 56.4 62.7 111.3 l12.5 36.6 1.6 322.8 1.6 322.3 -112.8 0 -112.3 0 0 -288.3 c0 -192.7 -2.1 -295.6 -5.7 -309.7 -14.6 -54.3 -50.1 -75.2 -124.8 -75.7 -60.1 0 -90.4 12 -123.8 48.6 l-22.5 24.5 0 300.3 0 300.3 -112.3 0 -112.3 0 0 -423.1z"/>
  <path d="M3906.9 1070.8 l0 -600.7 112.3 0 112.3 0 0 600.7 0 600.7 -112.3 0 -112.3 0 0 -600.7z"/>
  <path d="M5599.2 1102.1 l0 -569.3 378.7 0 378.7 0 0 96.6 0 96.6 -261.2 0 -261.2 0 0 135.8 0 135.8 224.6 0 224.6 0 0 91.4 0 91.4 -224.6 0 -224.6 0 0 151.5 0 151.5 263.8 0 263.8 0 0 94 0 94 -381.3 0 -381.3 0 0 -569.3z"/>
  <path d="M7119.2 1101.6 l0 -569.8 215.7 2.6 c230.9 2.6 250.2 4.7 325.9 31.9 239.7 87.2 357.8 319.7 325.4 639.8 -6.8 65.8 -25.1 129.5 -54.3 191.2 -52.8 111.3 -146.8 196.4 -263.8 240.8 -80.4 30.3 -114.4 33.4 -343.7 33.4 l-205.3 0 0 -569.8z m427.3 374 c47 -11 82.5 -30.8 116.5 -64.8 34 -34 56.9 -75.7 73.6 -134.8 11 -37.6 12 -51.2 12 -173.9 0 -122.7 -1 -136.3 -12 -173.9 -31.3 -108.1 -89.3 -170.3 -182.3 -194.3 -20.4 -5.2 -56.4 -7.8 -114.9 -7.8 l-85.1 0 0 378.7 0 378.7 79.9 0 c51.7 0 90.9 -2.6 112.3 -7.8z"/>
  <path d="M8148.1 1248.3 l0 -423.1 107.1 0 107.1 0 0 41.3 c0 60.6 2.6 63.2 28.7 27.7 47 -64.8 131.1 -95.1 213.1 -77.8 l19.3 4.2 0 108.1 0 108.1 -65.3 -1.6 c-74.7 -2.1 -107.6 4.7 -142.6 30.3 -45.4 32.9 -42.8 13.1 -42.8 328 l0 277.9 -112.3 0 -112.3 0 0 -423.1z"/>
  <path d="M8743.6 1248.3 l0 -423.1 112.3 0 112.3 0 0 423.1 0 423.1 -112.3 0 -112.3 0 0 -423.1z"/>
  <path d="M9362.5 1665.1 c-1.6 -3.7 -18.8 -54.8 -38.7 -113.9 -19.8 -59 -83 -246.5 -141 -416.8 l-104.5 -309.2 118 1 118 1.6 37.6 135.8 c20.9 74.7 56.4 203.2 78.9 285.7 23 82.5 41.8 148.3 42.3 146.2 0.5 -2.1 24.5 -89.3 53.8 -194.3 28.7 -105 58.5 -213.1 65.8 -240.3 7.8 -27.2 19.3 -68.4 25.6 -91.4 l12 -41.8 117.5 -1.6 118 -1 -96.6 285.7 c-52.8 157.7 -117 347.3 -142.6 422 l-46 135.8 -108.1 1.6 c-83.6 1 -108.6 0 -110.2 -5.2z"/>
  <path d="M6482 1183 l0 -91.4 219.4 0 219.4 0 0 91.4 0 91.4 -219.4 0 -219.4 0 0 -91.4z"/>
  <path d="M8819.8 720.3 c-30.8 -7.3 -54.8 -24.5 -71.6 -51.2 -13.1 -19.8 -15.1 -28.7 -15.1 -59.5 0 -43.4 9.4 -65.3 37.6 -89.3 49.6 -42.8 136.8 -38.1 180.7 9.4 53.8 58.5 37.1 149.4 -33.4 181.2 -26.1 12 -71 16.2 -98.2 9.4z"/>
 </g>
</svg>